<?xml version="1.0" encoding="utf-8"?>
<!-- Generator: Adobe Illustrator 25.2.0, SVG Export Plug-In . SVG Version: 6.00 Build 0)  -->
<svg version="1.1" id="Layer_1" xmlns:xodm="http://www.corel.com/coreldraw/odm/2003"
	 xmlns="http://www.w3.org/2000/svg" xmlns:xlink="http://www.w3.org/1999/xlink" x="0px" y="0px" viewBox="0 0 100 26"
	 style="enable-background:new 0 0 100 26;" xml:space="preserve">
<style type="text/css">
	.st0{fill:#FFFFFF;}
	.st1{fill-rule:evenodd;clip-rule:evenodd;fill:#FFFFFF;}
</style>
<g id="Layer_x0020_1">
	<g id="_2445052799504">
		<path class="st0" d="M8,0.2c-0.5,0-0.8,0.2-1,0.6L6.1,2.6C5.9,3,5.9,3.4,6.1,3.8L7,5.6C7.2,6,7.3,6.4,7.3,6.9v8.2
			c0,0.5,0.2,0.7,0.7,0.7h1c0.5,0,0.7-0.2,0.7-0.7V0.9c0-0.5-0.2-0.7-0.7-0.7H8L8,0.2z M4.6,9c0.5,0,0.7-0.2,0.7-0.7V6.6
			c0-0.5-0.1-0.9-0.3-1.3L2.7,0.8c-0.2-0.4-0.5-0.6-1-0.6h-1C0.2,0.2,0,0.4,0,0.9v3.9c0,0.5,0.2,0.7,0.7,0.7h0.7
			c0.5,0,0.8,0.2,1,0.6l1.2,2.3C3.8,8.8,4.1,9,4.6,9L4.6,9L4.6,9z M0.7,8.8C0.2,8.8,0,9,0,9.5v5.6c0,0.5,0.2,0.7,0.7,0.7h1
			c0.5,0,0.7-0.2,0.7-0.7V12c0-0.5-0.1-0.9-0.3-1.3L1.4,9.4C1.2,9,0.9,8.8,0.4,8.8H0.7L0.7,8.8z M16.5,15.1c0,0.5,0.2,0.7,0.7,0.7h1
			c0.5,0,0.7-0.2,0.7-0.7V0.9c0-0.5-0.2-0.7-0.7-0.7h-1c-0.5,0-0.7,0.2-0.7,0.7V15.1z M26.8,15.8c0.5,0,0.8-0.2,1-0.6l1.1-2
			c0.2-0.4,0.2-0.8,0-1.2l-0.7-1.3c-0.2-0.4-0.4-0.4-0.6,0L25,15.2c-0.2,0.4-0.1,0.6,0.4,0.6L26.8,15.8L26.8,15.8z M35.6,0.8
			c0.2-0.4,0.1-0.6-0.4-0.6h-1.4c-0.5,0-0.8,0.2-1,0.6l-0.7,1.3c-0.2,0.4-0.2,0.8,0,1.2l0.7,1.3c0.2,0.4,0.4,0.4,0.6,0L35.6,0.8
			L35.6,0.8z M35.7,15.8c0.5,0,0.6-0.2,0.4-0.6L28.1,0.8c-0.2-0.4-0.5-0.6-1-0.6h-1.4c-0.5,0-0.6,0.2-0.4,0.6l7.9,14.4
			c0.2,0.4,0.5,0.6,1,0.6H35.7z M38.5,15.1c0,0.5,0.2,0.7,0.7,0.7h1c0.5,0,0.7-0.2,0.7-0.7V0.9c0-0.5-0.2-0.7-0.7-0.7h-1
			c-0.5,0-0.7,0.2-0.7,0.7V15.1z M46,4.6c0,1.3-0.9,2-1.8,2.3c-0.5,0.1-0.7,0.2-0.7,0.7v0.9c0,0.5,0.2,0.7,0.7,0.7
			c2-0.2,4.2-1.8,4.2-4.4c0-2.5-1.9-4.1-4.2-4.3c-0.5,0-0.7,0.2-0.7,0.6v0.9c0,0.5,0.2,0.6,0.7,0.7C45.1,2.7,46,3.3,46,4.6L46,4.6z
			 M58.9,15.1c0.1,0.5,0.4,0.7,0.8,0.7h1.1c0.5,0,0.6-0.2,0.5-0.7L57.8,0.9c-0.1-0.5-0.4-0.7-0.8-0.7h-2c-0.5,0-0.7,0.2-0.8,0.7
			l0,0.2c-0.1,0.5,0,0.8,0.4,1.1l1,0.9c0.4,0.3,0.6,0.6,0.7,1.1L58.9,15.1L58.9,15.1z M55,9.4c-0.1-0.5-0.1-0.9,0-1.3l0.3-1.2
			c0.1-0.5,0-0.8-0.4-1.1l-1-0.9c-0.4-0.3-0.6-0.2-0.7,0.2l-2.3,10c-0.1,0.5,0,0.7,0.5,0.7h1.1c0.5,0,0.7-0.2,0.8-0.7l0.2-1
			c0.1-0.5,0.3-0.7,0.8-0.7h0.9c0.5,0,0.6-0.2,0.5-0.7L55,9.4L55,9.4z M73.2,7.2c0.5,0,0.7-0.2,0.7-0.7V0.9c0-0.5-0.2-0.7-0.7-0.7
			h-1c-0.5,0-0.7,0.2-0.7,0.7V4c0,0.5,0.1,0.9,0.3,1.3l0.7,1.3c0.2,0.4,0.5,0.6,1,0.6L73.2,7.2L73.2,7.2z M65.6,5.5
			c0.5,0,0.8,0.2,1,0.6l4.6,9.1c0.2,0.4,0.5,0.6,1,0.6h1c0.5,0,0.7-0.2,0.7-0.7v-3.9c0-0.5-0.2-0.7-0.7-0.7h-0.7
			c-0.5,0-0.8-0.2-1-0.6l-4.6-9.1c-0.2-0.4-0.5-0.6-1-0.6h-1c-0.5,0-0.7,0.2-0.7,0.7v3.9c0,0.5,0.2,0.7,0.7,0.7H65.6z M64.9,8.8
			c-0.5,0-0.7,0.2-0.7,0.7v5.6c0,0.5,0.2,0.7,0.7,0.7h1c0.5,0,0.7-0.2,0.7-0.7V12c0-0.5-0.1-0.9-0.3-1.3l-0.7-1.3
			c-0.2-0.4-0.5-0.6-1-0.6H64.9L64.9,8.8z M77,15.1c0,0.5,0.2,0.7,0.7,0.7h1c0.5,0,0.7-0.2,0.7-0.7V9.8c0-0.5,0.2-0.7,0.7-0.7h0.8
			c0.5,0,0.7-0.2,0.7-0.7V7.7c0-0.5-0.2-0.7-0.7-0.7h-0.8c-0.5,0-0.7-0.2-0.7-0.7V0.9c0-0.5-0.2-0.7-0.7-0.7h-1
			c-0.5,0-0.7,0.2-0.7,0.7V15.1L77,15.1z M82.1,15.1c0,0.5,0.2,0.7,0.7,0.7h3.7c0.5,0,0.7-0.2,0.7-0.7v-0.8c0-0.5-0.2-0.7-0.7-0.7
			h-3.7c-0.5,0-0.7,0.2-0.7,0.7V15.1z M82.1,1.7c0,0.5,0.2,0.7,0.7,0.7h3.7c0.5,0,0.7-0.2,0.7-0.7V0.9c0-0.5-0.2-0.7-0.7-0.7h-3.7
			c-0.5,0-0.7,0.2-0.7,0.7V1.7z M89.9,15.1c0,0.5,0.2,0.7,0.7,0.7h1c0.5,0,0.7-0.2,0.7-0.7V0.9c0-0.5-0.2-0.7-0.7-0.7h-1
			c-0.5,0-0.7,0.2-0.7,0.7V15.1z M94.9,15.1c0,0.5,0.2,0.7,0.7,0.7h3.7c0.5,0,0.7-0.2,0.7-0.7v-0.8c0-0.5-0.2-0.7-0.7-0.7h-3.7
			c-0.5,0-0.7,0.2-0.7,0.7V15.1z"/>
		<g>
			<circle class="st1" cx="3.8" cy="22" r="3.8"/>
			<path class="st1" d="M16.3,19.5c1.4,0,2.5,1.1,2.5,2.5c0,1.4-1.1,2.5-2.5,2.5c-1.4,0-2.5-1.1-2.5-2.5
				C13.8,20.6,14.9,19.5,16.3,19.5z"/>
			<circle class="st1" cx="27.8" cy="22" r="1.2"/>
		</g>
	</g>
</g>
</svg>
